<svg width="27" height="27" viewBox="0 0 27 27" fill="none" xmlns="http://www.w3.org/2000/svg">
<path d="M26.101 13.2103C26.0969 16.3876 24.9312 19.4537 22.8234 21.8311C20.7156 24.2085 17.8112 25.7331 14.6573 26.1178C14.587 26.1257 14.5159 26.1187 14.4486 26.0972C14.3813 26.0756 14.3193 26.0401 14.2668 25.9928C14.2142 25.9456 14.1722 25.8877 14.1437 25.8231C14.1151 25.7584 14.1006 25.6885 14.101 25.6178V16.2103H17.101C17.2381 16.2106 17.3738 16.1827 17.4996 16.1284C17.6255 16.074 17.7388 15.9944 17.8326 15.8944C17.9264 15.7944 17.9986 15.6762 18.0448 15.5471C18.091 15.418 18.1101 15.2808 18.101 15.144C18.0789 14.8869 17.9603 14.6477 17.769 14.4744C17.5777 14.3012 17.3278 14.2068 17.0698 14.2103H14.101V11.2103C14.101 10.6799 14.3117 10.1712 14.6868 9.79608C15.0619 9.42101 15.5706 9.2103 16.101 9.2103H18.101C18.2381 9.2106 18.3738 9.18271 18.4996 9.12836C18.6255 9.07402 18.7388 8.99437 18.8326 8.89438C18.9264 8.79439 18.9986 8.67618 19.0448 8.5471C19.091 8.41803 19.1101 8.28083 19.101 8.14405C19.0789 7.88646 18.9599 7.64685 18.7681 7.47356C18.5762 7.30026 18.3258 7.20618 18.0673 7.2103H16.101C15.0402 7.2103 14.0227 7.63172 13.2726 8.38187C12.5224 9.13201 12.101 10.1494 12.101 11.2103V14.2103H9.10102C8.96393 14.21 8.82824 14.2379 8.70239 14.2922C8.57653 14.3466 8.4632 14.4262 8.36942 14.5262C8.27564 14.6262 8.20342 14.7444 8.15725 14.8735C8.11107 15.0026 8.09194 15.1398 8.10102 15.2765C8.12314 15.5341 8.24212 15.7737 8.43398 15.947C8.62583 16.1203 8.87627 16.2144 9.13477 16.2103H12.101V25.6203C12.1014 25.6909 12.0869 25.7607 12.0584 25.8252C12.0299 25.8898 11.9881 25.9476 11.9357 25.9948C11.8833 26.042 11.8214 26.0776 11.7543 26.0993C11.6871 26.1209 11.6161 26.1281 11.546 26.1203C8.30771 25.7259 5.33547 24.1302 3.21761 21.6489C1.09975 19.1676 -0.0093776 15.9816 0.109767 12.7215C0.359767 5.97155 5.82727 0.484045 12.5823 0.221545C14.3311 0.153803 16.0757 0.439484 17.7116 1.0615C19.3475 1.68352 20.8412 2.62909 22.1032 3.84167C23.3653 5.05424 24.3698 6.5089 25.0567 8.11864C25.7436 9.72838 26.0988 11.4601 26.101 13.2103Z" fill="black"/>
</svg>
