<svg width="27" height="27" viewBox="0 0 27 27" fill="none" xmlns="http://www.w3.org/2000/svg">
<path d="M19.1011 0.123291H7.10107C5.24517 0.125276 3.46584 0.863412 2.15352 2.17574C0.841195 3.48806 0.10306 5.26738 0.101074 7.12329V19.1233C0.10306 20.9792 0.841195 22.7585 2.15352 24.0708C3.46584 25.3832 5.24517 26.1213 7.10107 26.1233H19.1011C20.957 26.1213 22.7363 25.3832 24.0486 24.0708C25.361 22.7585 26.0991 20.9792 26.1011 19.1233V7.12329C26.0991 5.26738 25.361 3.48806 24.0486 2.17574C22.7363 0.863412 20.957 0.125276 19.1011 0.123291ZM13.1011 19.1233C11.9144 19.1233 10.7543 18.7714 9.76765 18.1121C8.78096 17.4528 8.01192 16.5157 7.5578 15.4194C7.10367 14.323 6.98485 13.1166 7.21636 11.9527C7.44787 10.7889 8.01932 9.71977 8.85843 8.88065C9.69755 8.04154 10.7666 7.47009 11.9305 7.23858C13.0944 7.00707 14.3008 7.12589 15.3972 7.58001C16.4935 8.03414 17.4306 8.80317 18.0899 9.78987C18.7492 10.7766 19.1011 11.9366 19.1011 13.1233C19.0994 14.7141 18.4667 16.2392 17.3419 17.3641C16.217 18.489 14.6919 19.1216 13.1011 19.1233ZM20.6011 7.12329C20.3044 7.12329 20.0144 7.03532 19.7677 6.8705C19.521 6.70567 19.3288 6.47141 19.2153 6.19732C19.1017 5.92323 19.072 5.62163 19.1299 5.33066C19.1878 5.03968 19.3306 4.77241 19.5404 4.56263C19.7502 4.35285 20.0175 4.20999 20.3084 4.15211C20.5994 4.09424 20.901 4.12394 21.1751 4.23747C21.4492 4.351 21.6835 4.54326 21.8483 4.78994C22.0131 5.03661 22.1011 5.32662 22.1011 5.62329C22.1011 6.02112 21.943 6.40265 21.6617 6.68395C21.3804 6.96526 20.9989 7.12329 20.6011 7.12329ZM17.1011 13.1233C17.1011 13.9144 16.8665 14.6878 16.427 15.3456C15.9874 16.0034 15.3627 16.5161 14.6318 16.8188C13.9009 17.1216 13.0966 17.2008 12.3207 17.0464C11.5448 16.8921 10.8321 16.5111 10.2726 15.9517C9.71324 15.3923 9.33227 14.6796 9.17793 13.9037C9.02359 13.1277 9.10281 12.3235 9.40556 11.5926C9.70831 10.8617 10.221 10.2369 10.8788 9.79741C11.5366 9.35789 12.3099 9.12329 13.1011 9.12329C14.1619 9.12329 15.1794 9.54472 15.9295 10.2949C16.6796 11.045 17.1011 12.0624 17.1011 13.1233Z" fill="black"/>
</svg>
