<svg width="281" height="34" viewBox="0 0 281 34" fill="none" xmlns="http://www.w3.org/2000/svg">
<path d="M13.4847 33.2906C10.8528 33.2906 8.53224 32.6681 6.52297 31.4229C4.51369 30.1494 2.9289 28.3806 1.76862 26.1167C0.636627 23.8527 0.0706334 21.2067 0.0706334 18.1786C0.0706334 15.1222 0.664927 12.4196 1.85351 10.0707C3.0704 7.72186 4.81083 5.88238 7.07481 4.5523C9.33879 3.22221 12.0273 2.55717 15.1402 2.55717C18.706 2.55717 21.6492 3.40616 23.9697 5.10414C26.3186 6.80212 27.8326 9.151 28.5118 12.1508H21.4228C20.9983 10.9622 20.2483 10.0424 19.1729 9.39155C18.1258 8.74065 16.7816 8.41521 15.1402 8.41521C13.2724 8.41521 11.7018 8.82555 10.4283 9.64624C9.15484 10.4386 8.19265 11.5706 7.54175 13.0422C6.89086 14.4855 6.56542 16.1976 6.56542 18.1786C6.56542 20.2162 6.89086 21.9425 7.54175 23.3574C8.19265 24.7724 9.14069 25.8478 10.3859 26.5836C11.6311 27.2911 13.1026 27.6449 14.8006 27.6449C17.2344 27.6449 19.0739 27.0081 20.3191 25.7346C21.5926 24.4611 22.3708 22.8622 22.6538 20.9378H15.7345V16.1835H29.0212V32.7812H23.1632L22.6962 28.3665H22.5689C21.9463 29.4136 21.1964 30.3192 20.3191 31.0833C19.4418 31.8191 18.423 32.3709 17.2627 32.7388C16.1307 33.1067 14.8714 33.2906 13.4847 33.2906ZM36.5179 33.2906C34.8199 33.2906 33.4191 33.0076 32.3154 32.4417C31.2117 31.8757 30.4052 31.1257 29.8958 30.1918C29.3864 29.2296 29.1317 28.1684 29.1317 27.0081C29.1317 25.7346 29.443 24.6168 30.0656 23.6546C30.7164 22.6641 31.7211 21.8859 33.0795 21.3199C34.4379 20.7539 36.1783 20.4709 38.3008 20.4709H43.4796C43.4796 19.5087 43.3523 18.7304 43.0976 18.1362C42.8429 17.5136 42.4325 17.0608 41.8665 16.7778C41.3288 16.4665 40.6072 16.3108 39.7016 16.3108C38.7111 16.3108 37.848 16.5231 37.1122 16.9476C36.4047 17.3721 35.966 18.0371 35.7962 18.9427H29.6835C29.825 17.3862 30.3344 16.042 31.2117 14.91C32.089 13.7497 33.2493 12.8441 34.6926 12.1932C36.1641 11.5423 37.848 11.2169 39.7441 11.2169C41.7816 11.2169 43.5504 11.5423 45.0502 12.1932C46.5784 12.8441 47.7529 13.8205 48.5736 15.1222C49.4225 16.3957 49.847 17.9664 49.847 19.8341V32.7812H44.5833L43.8617 29.5975H43.7343C43.3381 30.2201 42.8853 30.7578 42.3759 31.2106C41.8665 31.6634 41.3005 32.0455 40.6779 32.3568C40.0836 32.6681 39.4328 32.8944 38.7253 33.0359C38.0461 33.2057 37.3103 33.2906 36.5179 33.2906ZM38.6404 28.4514C39.3196 28.4514 39.9139 28.3382 40.4232 28.1118C40.9609 27.8854 41.4137 27.5883 41.7816 27.2204C42.1495 26.8242 42.4467 26.3714 42.6731 25.862C42.8995 25.3526 43.0693 24.8007 43.1825 24.2064H39.0649C38.3291 24.2064 37.7206 24.3055 37.2395 24.5036C36.7867 24.6734 36.4471 24.9281 36.2207 25.2677C35.9943 25.579 35.8811 25.961 35.8811 26.4138C35.8811 26.8666 35.9943 27.2487 36.2207 27.56C36.4471 27.843 36.7726 28.0693 37.1971 28.2391C37.6216 28.3806 38.1027 28.4514 38.6404 28.4514ZM59.9308 32.7812C58.3743 32.7812 57.0018 32.5407 55.8132 32.0596C54.6529 31.5502 53.7332 30.7295 53.054 29.5975C52.4031 28.4655 52.0776 26.9232 52.0776 24.9705V16.9476H48.5119V11.7263H52.0776L52.7568 5.82578H58.4451V11.7263H63.8786V16.9476H58.4451V25.0554C58.4451 25.9327 58.6432 26.5553 59.0394 26.9232C59.4356 27.2628 60.0865 27.4326 60.992 27.4326H63.8362V32.7812H59.9308ZM63.61 32.7812V11.7263H69.9774V32.7812H63.61ZM66.7937 9.434C65.6617 9.434 64.742 9.10855 64.0345 8.45766C63.327 7.77846 62.9732 6.94362 62.9732 5.95313C62.9732 4.96264 63.327 4.14195 64.0345 3.49106C64.742 2.81187 65.6617 2.47227 66.7937 2.47227C67.954 2.47227 68.8879 2.81187 69.5954 3.49106C70.3312 4.14195 70.6991 4.96264 70.6991 5.95313C70.6991 6.94362 70.3312 7.77846 69.5954 8.45766C68.8879 9.10855 67.954 9.434 66.7937 9.434ZM80.9549 32.7812C79.3985 32.7812 78.0259 32.5407 76.8373 32.0596C75.677 31.5502 74.7573 30.7295 74.0781 29.5975C73.4272 28.4655 73.1018 26.9232 73.1018 24.9705V16.9476H69.536V11.7263H73.1018L73.781 5.82578H79.4692V11.7263H84.9027V16.9476H79.4692V25.0554C79.4692 25.9327 79.6673 26.5553 80.0635 26.9232C80.4597 27.2628 81.1106 27.4326 82.0162 27.4326H84.8603V32.7812H80.9549ZM93.9001 33.2906C91.8625 33.2906 90.0089 32.8237 88.3392 31.8898C86.6978 30.9276 85.396 29.6258 84.4338 27.9845C83.4716 26.3148 82.9905 24.4045 82.9905 22.2538C82.9905 20.103 83.4716 18.1928 84.4338 16.5231C85.396 14.8534 86.6978 13.5516 88.3392 12.6177C90.0089 11.6838 91.8625 11.2169 93.9001 11.2169C95.9659 11.2169 97.8196 11.6838 99.461 12.6177C101.102 13.5516 102.404 14.8534 103.366 16.5231C104.329 18.1928 104.81 20.103 104.81 22.2538C104.81 24.4045 104.329 26.3148 103.366 27.9845C102.404 29.6258 101.088 30.9276 99.4185 31.8898C97.7771 32.8237 95.9376 33.2906 93.9001 33.2906ZM93.9001 27.8571C94.7208 27.8571 95.4565 27.6449 96.1074 27.2204C96.7866 26.7959 97.3243 26.1733 97.7205 25.3526C98.145 24.5319 98.3573 23.4989 98.3573 22.2538C98.3573 21.0086 98.145 19.9756 97.7205 19.1549C97.3243 18.306 96.7866 17.6834 96.1074 17.2872C95.4565 16.8627 94.7349 16.6504 93.9425 16.6504C93.1218 16.6504 92.3719 16.8627 91.6927 17.2872C91.0135 17.6834 90.4758 18.306 90.0796 19.1549C89.6834 19.9756 89.4853 21.0086 89.4853 22.2538C89.4853 23.4706 89.6834 24.5036 90.0796 25.3526C90.4758 26.1733 91.0135 26.7959 91.6927 27.2204C92.3719 27.6449 93.1077 27.8571 93.9001 27.8571ZM113.731 33.2906C111.807 33.2906 110.109 32.9793 108.637 32.3568C107.166 31.7059 105.991 30.8427 105.114 29.7673C104.237 28.6636 103.727 27.4185 103.586 26.0318H109.911C110.052 26.4846 110.279 26.9091 110.59 27.3053C110.901 27.6732 111.312 27.9703 111.821 28.1967C112.33 28.4231 112.925 28.5363 113.604 28.5363C114.283 28.5363 114.835 28.4514 115.259 28.2816C115.712 28.0835 116.038 27.843 116.236 27.56C116.462 27.2487 116.575 26.9374 116.575 26.6261C116.575 26.1167 116.406 25.7346 116.066 25.4799C115.755 25.2252 115.288 25.013 114.665 24.8432C114.043 24.6451 113.307 24.4328 112.458 24.2064C111.524 23.9517 110.562 23.6829 109.571 23.3999C108.609 23.1169 107.718 22.7632 106.897 22.3387C106.105 21.8859 105.454 21.3057 104.944 20.5982C104.463 19.8907 104.223 19.0134 104.223 17.9664C104.223 16.7212 104.562 15.5892 105.241 14.5704C105.949 13.5516 106.968 12.7451 108.298 12.1508C109.628 11.5282 111.241 11.2169 113.137 11.2169C115.741 11.2169 117.806 11.8112 119.335 12.9998C120.891 14.16 121.797 15.759 122.051 17.7966H116.151C115.981 17.2306 115.627 16.7919 115.09 16.4806C114.58 16.141 113.915 15.9712 113.095 15.9712C112.217 15.9712 111.538 16.141 111.057 16.4806C110.576 16.7919 110.335 17.1598 110.335 17.5843C110.335 17.9522 110.505 18.2635 110.845 18.5182C111.213 18.7729 111.708 18.9993 112.33 19.1974C112.981 19.3672 113.731 19.5653 114.58 19.7917C116.165 20.1879 117.58 20.5982 118.825 21.0227C120.07 21.4472 121.061 22.0557 121.797 22.8481C122.533 23.6121 122.9 24.73 122.9 26.2016C122.929 27.56 122.561 28.7768 121.797 29.8522C121.061 30.8993 120 31.7342 118.613 32.3568C117.255 32.9793 115.627 33.2906 113.731 33.2906ZM142.088 33.2906C139.088 33.2906 136.499 32.6539 134.32 31.3804C132.169 30.0786 130.499 28.2816 129.311 25.9893C128.15 23.6687 127.57 21.0086 127.57 18.0088C127.57 14.9524 128.15 12.2781 129.311 9.98584C130.499 7.66527 132.169 5.85408 134.32 4.5523C136.499 3.22221 139.088 2.55717 142.088 2.55717C145.767 2.55717 148.781 3.47691 151.13 5.31639C153.479 7.15587 154.936 9.74529 155.502 13.0847H148.498C148.187 11.5848 147.479 10.4245 146.375 9.6038C145.272 8.7548 143.828 8.33031 142.045 8.33031C140.347 8.33031 138.904 8.7265 137.716 9.51889C136.527 10.3113 135.621 11.4291 134.999 12.8724C134.376 14.2874 134.065 15.9995 134.065 18.0088C134.065 19.9615 134.376 21.6595 134.999 23.1028C135.621 24.5177 136.527 25.6073 137.716 26.3714C138.904 27.1355 140.347 27.5175 142.045 27.5175C143.828 27.5175 145.257 27.1496 146.333 26.4138C147.437 25.678 148.172 24.6026 148.54 23.1877H155.502C154.964 26.3289 153.507 28.8051 151.13 30.6163C148.781 32.3992 145.767 33.2906 142.088 33.2906ZM166.217 33.2906C164.01 33.2906 162.057 32.8378 160.359 31.9323C158.689 31.0267 157.374 29.7673 156.411 28.1542C155.477 26.5129 155.011 24.6309 155.011 22.5085C155.011 20.3294 155.477 18.3909 156.411 16.6929C157.345 14.9949 158.647 13.6648 160.317 12.7026C162.015 11.7121 163.982 11.2169 166.217 11.2169C168.311 11.2169 170.165 11.6697 171.778 12.5753C173.419 13.4809 174.707 14.726 175.641 16.3108C176.575 17.8956 177.042 19.7209 177.042 21.7868C177.042 22.0698 177.042 22.3953 177.042 22.7632C177.042 23.1028 177.014 23.4565 176.957 23.8244H159.51V20.0888H170.589C170.505 18.9568 170.052 18.0371 169.231 17.3296C168.439 16.6221 167.448 16.2684 166.26 16.2684C165.326 16.2684 164.477 16.4806 163.713 16.9051C162.977 17.3013 162.383 17.9239 161.93 18.7729C161.505 19.5936 161.293 20.6548 161.293 21.9566V23.1877C161.293 24.1498 161.491 25.013 161.887 25.7771C162.284 26.5129 162.85 27.093 163.585 27.5175C164.321 27.9137 165.17 28.1118 166.132 28.1118C167.066 28.1118 167.844 27.9137 168.467 27.5175C169.09 27.1213 169.571 26.6119 169.91 25.9893H176.448C176.023 27.3477 175.33 28.5787 174.367 29.6824C173.405 30.7861 172.231 31.6634 170.844 32.3143C169.457 32.9652 167.915 33.2906 166.217 33.2906ZM176.879 32.7812V2.85431H183.247V32.7812H176.879ZM194.454 33.2906C192.247 33.2906 190.294 32.8378 188.596 31.9323C186.927 31.0267 185.611 29.7673 184.649 28.1542C183.715 26.5129 183.248 24.6309 183.248 22.5085C183.248 20.3294 183.715 18.3909 184.649 16.6929C185.582 14.9949 186.884 13.6648 188.554 12.7026C190.252 11.7121 192.219 11.2169 194.454 11.2169C196.549 11.2169 198.402 11.6697 200.015 12.5753C201.657 13.4809 202.944 14.726 203.878 16.3108C204.812 17.8956 205.279 19.7209 205.279 21.7868C205.279 22.0698 205.279 22.3953 205.279 22.7632C205.279 23.1028 205.251 23.4565 205.194 23.8244H187.747V20.0888H198.827C198.742 18.9568 198.289 18.0371 197.468 17.3296C196.676 16.6221 195.685 16.2684 194.497 16.2684C193.563 16.2684 192.714 16.4806 191.95 16.9051C191.214 17.3013 190.62 17.9239 190.167 18.7729C189.743 19.5936 189.53 20.6548 189.53 21.9566V23.1877C189.53 24.1498 189.728 25.013 190.125 25.7771C190.521 26.5129 191.087 27.093 191.823 27.5175C192.558 27.9137 193.407 28.1118 194.37 28.1118C195.303 28.1118 196.082 27.9137 196.704 27.5175C197.327 27.1213 197.808 26.6119 198.148 25.9893H204.685C204.26 27.3477 203.567 28.5787 202.605 29.6824C201.643 30.7861 200.468 31.6634 199.081 32.3143C197.695 32.9652 196.152 33.2906 194.454 33.2906ZM189.276 9.90094V5.27394L199.081 0.519589H199.209V5.44374L189.276 9.90094ZM218.446 33.2906C217.314 33.2906 216.281 33.135 215.347 32.8237C214.413 32.5124 213.592 32.0738 212.885 31.5078C212.177 30.9135 211.569 30.2201 211.059 29.4277H210.932L210.508 32.7812H205.117V2.85431H211.484V14.3157C212.163 13.4384 213.083 12.7026 214.243 12.1083C215.403 11.514 216.776 11.2169 218.361 11.2169C220.37 11.2169 222.125 11.698 223.625 12.6602C225.124 13.5941 226.285 14.8958 227.105 16.5655C227.954 18.2069 228.379 20.103 228.379 22.2538C228.379 24.4045 227.954 26.3148 227.105 27.9845C226.285 29.6258 225.124 30.9276 223.625 31.8898C222.153 32.8237 220.427 33.2906 218.446 33.2906ZM216.62 28.0269C217.667 28.0269 218.587 27.7722 219.38 27.2628C220.2 26.7534 220.823 26.0742 221.247 25.2252C221.7 24.3762 221.927 23.3716 221.927 22.2113C221.927 21.1076 221.7 20.1171 221.247 19.2398C220.823 18.3626 220.2 17.6834 219.38 17.2023C218.587 16.6929 217.667 16.4382 216.62 16.4382C215.573 16.4382 214.639 16.6929 213.819 17.2023C213.026 17.6834 212.404 18.3626 211.951 19.2398C211.498 20.0888 211.272 21.0935 211.272 22.2538C211.272 23.3574 211.498 24.3479 211.951 25.2252C212.404 26.1025 213.026 26.7959 213.819 27.3053C214.639 27.7864 215.573 28.0269 216.62 28.0269ZM228.289 32.7812V11.7263H233.723L234.317 16.1835H234.444C235.01 14.8534 235.661 13.8346 236.397 13.1271C237.161 12.3913 238.024 11.8961 238.986 11.6414C239.977 11.3584 241.038 11.2169 242.17 11.2169V17.9664H240.43C239.524 17.9664 238.703 18.0654 237.968 18.2635C237.26 18.4333 236.652 18.7446 236.142 19.1974C235.661 19.6219 235.293 20.202 235.039 20.9378C234.784 21.6736 234.656 22.5651 234.656 23.6121V32.7812H228.289ZM251.464 33.2906C249.257 33.2906 247.304 32.8378 245.606 31.9323C243.937 31.0267 242.621 29.7673 241.659 28.1542C240.725 26.5129 240.258 24.6309 240.258 22.5085C240.258 20.3294 240.725 18.3909 241.659 16.6929C242.593 14.9949 243.894 13.6648 245.564 12.7026C247.262 11.7121 249.229 11.2169 251.464 11.2169C253.559 11.2169 255.412 11.6697 257.025 12.5753C258.667 13.4809 259.954 14.726 260.888 16.3108C261.822 17.8956 262.289 19.7209 262.289 21.7868C262.289 22.0698 262.289 22.3953 262.289 22.7632C262.289 23.1028 262.261 23.4565 262.204 23.8244H244.757V20.0888H255.837C255.752 18.9568 255.299 18.0371 254.478 17.3296C253.686 16.6221 252.696 16.2684 251.507 16.2684C250.573 16.2684 249.724 16.4806 248.96 16.9051C248.224 17.3013 247.63 17.9239 247.177 18.7729C246.753 19.5936 246.54 20.6548 246.54 21.9566V23.1877C246.54 24.1498 246.738 25.013 247.135 25.7771C247.531 26.5129 248.097 27.093 248.833 27.5175C249.568 27.9137 250.417 28.1118 251.38 28.1118C252.313 28.1118 253.092 27.9137 253.714 27.5175C254.337 27.1213 254.818 26.6119 255.158 25.9893H261.695C261.27 27.3477 260.577 28.5787 259.615 29.6824C258.653 30.7861 257.478 31.6634 256.091 32.3143C254.705 32.9652 253.162 33.2906 251.464 33.2906ZM270.999 33.2906C269.074 33.2906 267.376 32.9793 265.905 32.3568C264.433 31.7059 263.259 30.8427 262.381 29.7673C261.504 28.6636 260.995 27.4185 260.853 26.0318H267.178C267.32 26.4846 267.546 26.9091 267.857 27.3053C268.169 27.6732 268.579 27.9703 269.088 28.1967C269.598 28.4231 270.192 28.5363 270.871 28.5363C271.55 28.5363 272.102 28.4514 272.527 28.2816C272.98 28.0835 273.305 27.843 273.503 27.56C273.73 27.2487 273.843 26.9374 273.843 26.6261C273.843 26.1167 273.673 25.7346 273.333 25.4799C273.022 25.2252 272.555 25.013 271.932 24.8432C271.31 24.6451 270.574 24.4328 269.725 24.2064C268.791 23.9517 267.829 23.6829 266.839 23.3999C265.876 23.1169 264.985 22.7632 264.164 22.3387C263.372 21.8859 262.721 21.3057 262.212 20.5982C261.73 19.8907 261.49 19.0134 261.49 17.9664C261.49 16.7212 261.829 15.5892 262.509 14.5704C263.216 13.5516 264.235 12.7451 265.565 12.1508C266.895 11.5282 268.508 11.2169 270.404 11.2169C273.008 11.2169 275.074 11.8112 276.602 12.9998C278.158 14.16 279.064 15.759 279.319 17.7966H273.418C273.248 17.2306 272.895 16.7919 272.357 16.4806C271.848 16.141 271.183 15.9712 270.362 15.9712C269.485 15.9712 268.805 16.141 268.324 16.4806C267.843 16.7919 267.603 17.1598 267.603 17.5843C267.603 17.9522 267.772 18.2635 268.112 18.5182C268.48 18.7729 268.975 18.9993 269.598 19.1974C270.249 19.3672 270.999 19.5653 271.848 19.7917C273.432 20.1879 274.847 20.5982 276.093 21.0227C277.338 21.4472 278.328 22.0557 279.064 22.8481C279.8 23.6121 280.168 24.73 280.168 26.2016C280.196 27.56 279.828 28.7768 279.064 29.8522C278.328 30.8993 277.267 31.7342 275.88 32.3568C274.522 32.9793 272.895 33.2906 270.999 33.2906Z" fill="black"/>
</svg>
