<svg width="281" height="34" viewBox="0 0 281 34" fill="none" xmlns="http://www.w3.org/2000/svg">
<path d="M13.4847 33.2806C10.8528 33.2806 8.53224 32.658 6.52297 31.4129C4.51369 30.1394 2.9289 28.3706 1.76862 26.1067C0.636627 23.8427 0.0706334 21.1967 0.0706334 18.1686C0.0706334 15.1122 0.664927 12.4096 1.85351 10.0607C3.0704 7.71185 4.81083 5.87237 7.07481 4.54229C9.33879 3.2122 12.0273 2.54716 15.1402 2.54716C18.706 2.54716 21.6492 3.39615 23.9697 5.09413C26.3186 6.79211 27.8326 9.14099 28.5118 12.1408H21.4228C20.9983 10.9522 20.2483 10.0324 19.1729 9.38154C18.1258 8.73064 16.7816 8.4052 15.1402 8.4052C13.2724 8.4052 11.7018 8.81554 10.4283 9.63623C9.15484 10.4286 8.19265 11.5606 7.54175 13.0322C6.89086 14.4755 6.56542 16.1876 6.56542 18.1686C6.56542 20.2062 6.89086 21.9325 7.54175 23.3474C8.19265 24.7624 9.14069 25.8378 10.3859 26.5736C11.6311 27.2811 13.1026 27.6348 14.8006 27.6348C17.2344 27.6348 19.0739 26.9981 20.3191 25.7246C21.5926 24.4511 22.3708 22.8522 22.6538 20.9278H15.7345V16.1735H29.0212V32.7712H23.1632L22.6962 28.3565H22.5689C21.9463 29.4036 21.1964 30.3092 20.3191 31.0733C19.4418 31.8091 18.423 32.3609 17.2627 32.7288C16.1307 33.0967 14.8714 33.2806 13.4847 33.2806ZM36.5179 33.2806C34.8199 33.2806 33.4191 32.9976 32.3154 32.4316C31.2117 31.8656 30.4052 31.1157 29.8958 30.1818C29.3864 29.2196 29.1317 28.1584 29.1317 26.9981C29.1317 25.7246 29.443 24.6068 30.0656 23.6446C30.7164 22.6541 31.7211 21.8759 33.0795 21.3099C34.4379 20.7439 36.1783 20.4609 38.3008 20.4609H43.4796C43.4796 19.4987 43.3523 18.7204 43.0976 18.1261C42.8429 17.5036 42.4325 17.0508 41.8665 16.7678C41.3288 16.4565 40.6072 16.3008 39.7016 16.3008C38.7111 16.3008 37.848 16.5131 37.1122 16.9376C36.4047 17.3621 35.966 18.0271 35.7962 18.9327H29.6835C29.825 17.3762 30.3344 16.032 31.2117 14.9C32.089 13.7397 33.2493 12.8341 34.6926 12.1832C36.1641 11.5323 37.848 11.2069 39.7441 11.2069C41.7816 11.2069 43.5504 11.5323 45.0502 12.1832C46.5784 12.8341 47.7529 13.8104 48.5736 15.1122C49.4225 16.3857 49.847 17.9563 49.847 19.8241V32.7712H44.5833L43.8617 29.5875H43.7343C43.3381 30.2101 42.8853 30.7478 42.3759 31.2006C41.8665 31.6534 41.3005 32.0354 40.6779 32.3467C40.0836 32.658 39.4328 32.8844 38.7253 33.0259C38.0461 33.1957 37.3103 33.2806 36.5179 33.2806ZM38.6404 28.4414C39.3196 28.4414 39.9139 28.3282 40.4232 28.1018C40.9609 27.8754 41.4137 27.5782 41.7816 27.2103C42.1495 26.8142 42.4467 26.3614 42.6731 25.852C42.8995 25.3426 43.0693 24.7907 43.1825 24.1964H39.0649C38.3291 24.1964 37.7206 24.2955 37.2395 24.4936C36.7867 24.6634 36.4471 24.9181 36.2207 25.2577C35.9943 25.569 35.8811 25.951 35.8811 26.4038C35.8811 26.8566 35.9943 27.2386 36.2207 27.5499C36.4471 27.8329 36.7726 28.0593 37.1971 28.2291C37.6216 28.3706 38.1027 28.4414 38.6404 28.4414ZM59.9308 32.7712C58.3743 32.7712 57.0018 32.5307 55.8132 32.0496C54.6529 31.5402 53.7332 30.7195 53.054 29.5875C52.4031 28.4555 52.0776 26.9132 52.0776 24.9605V16.9376H48.5119V11.7163H52.0776L52.7568 5.81577H58.4451V11.7163H63.8786V16.9376H58.4451V25.0454C58.4451 25.9227 58.6432 26.5453 59.0394 26.9132C59.4356 27.2528 60.0865 27.4226 60.992 27.4226H63.8362V32.7712H59.9308ZM63.61 32.7712V11.7163H69.9774V32.7712H63.61ZM66.7937 9.42399C65.6617 9.42399 64.742 9.09854 64.0345 8.44765C63.327 7.76845 62.9732 6.93361 62.9732 5.94312C62.9732 4.95263 63.327 4.13194 64.0345 3.48105C64.742 2.80186 65.6617 2.46226 66.7937 2.46226C67.954 2.46226 68.8879 2.80186 69.5954 3.48105C70.3312 4.13194 70.6991 4.95263 70.6991 5.94312C70.6991 6.93361 70.3312 7.76845 69.5954 8.44765C68.8879 9.09854 67.954 9.42399 66.7937 9.42399ZM80.9549 32.7712C79.3985 32.7712 78.0259 32.5307 76.8373 32.0496C75.677 31.5402 74.7573 30.7195 74.0781 29.5875C73.4272 28.4555 73.1018 26.9132 73.1018 24.9605V16.9376H69.536V11.7163H73.1018L73.781 5.81577H79.4692V11.7163H84.9027V16.9376H79.4692V25.0454C79.4692 25.9227 79.6673 26.5453 80.0635 26.9132C80.4597 27.2528 81.1106 27.4226 82.0162 27.4226H84.8603V32.7712H80.9549ZM93.9001 33.2806C91.8625 33.2806 90.0089 32.8137 88.3392 31.8798C86.6978 30.9176 85.396 29.6158 84.4338 27.9744C83.4716 26.3048 82.9905 24.3945 82.9905 22.2438C82.9905 20.093 83.4716 18.1827 84.4338 16.5131C85.396 14.8434 86.6978 13.5416 88.3392 12.6077C90.0089 11.6738 91.8625 11.2069 93.9001 11.2069C95.9659 11.2069 97.8196 11.6738 99.461 12.6077C101.102 13.5416 102.404 14.8434 103.366 16.5131C104.329 18.1827 104.81 20.093 104.81 22.2438C104.81 24.3945 104.329 26.3048 103.366 27.9744C102.404 29.6158 101.088 30.9176 99.4185 31.8798C97.7771 32.8137 95.9376 33.2806 93.9001 33.2806ZM93.9001 27.8471C94.7208 27.8471 95.4565 27.6348 96.1074 27.2103C96.7866 26.7859 97.3243 26.1633 97.7205 25.3426C98.145 24.5219 98.3573 23.4889 98.3573 22.2438C98.3573 20.9986 98.145 19.9656 97.7205 19.1449C97.3243 18.2959 96.7866 17.6733 96.1074 17.2772C95.4565 16.8527 94.7349 16.6404 93.9425 16.6404C93.1218 16.6404 92.3719 16.8527 91.6927 17.2772C91.0135 17.6733 90.4758 18.2959 90.0796 19.1449C89.6834 19.9656 89.4853 20.9986 89.4853 22.2438C89.4853 23.4606 89.6834 24.4936 90.0796 25.3426C90.4758 26.1633 91.0135 26.7859 91.6927 27.2103C92.3719 27.6348 93.1077 27.8471 93.9001 27.8471ZM113.731 33.2806C111.807 33.2806 110.109 32.9693 108.637 32.3467C107.166 31.6959 105.991 30.8327 105.114 29.7573C104.237 28.6536 103.727 27.4084 103.586 26.0218H109.911C110.052 26.4746 110.279 26.8991 110.59 27.2952C110.901 27.6631 111.312 27.9603 111.821 28.1867C112.33 28.4131 112.925 28.5263 113.604 28.5263C114.283 28.5263 114.835 28.4414 115.259 28.2716C115.712 28.0735 116.038 27.8329 116.236 27.5499C116.462 27.2386 116.575 26.9274 116.575 26.6161C116.575 26.1067 116.406 25.7246 116.066 25.4699C115.755 25.2152 115.288 25.003 114.665 24.8332C114.043 24.6351 113.307 24.4228 112.458 24.1964C111.524 23.9417 110.562 23.6729 109.571 23.3899C108.609 23.1069 107.718 22.7531 106.897 22.3287C106.105 21.8759 105.454 21.2957 104.944 20.5882C104.463 19.8807 104.223 19.0034 104.223 17.9563C104.223 16.7112 104.562 15.5792 105.241 14.5604C105.949 13.5416 106.968 12.7351 108.298 12.1408C109.628 11.5182 111.241 11.2069 113.137 11.2069C115.741 11.2069 117.806 11.8012 119.335 12.9897C120.891 14.15 121.797 15.749 122.051 17.7865H116.151C115.981 17.2206 115.627 16.7819 115.09 16.4706C114.58 16.131 113.915 15.9612 113.095 15.9612C112.217 15.9612 111.538 16.131 111.057 16.4706C110.576 16.7819 110.335 17.1498 110.335 17.5743C110.335 17.9422 110.505 18.2535 110.845 18.5082C111.213 18.7629 111.708 18.9893 112.33 19.1874C112.981 19.3572 113.731 19.5553 114.58 19.7817C116.165 20.1779 117.58 20.5882 118.825 21.0127C120.07 21.4372 121.061 22.0457 121.797 22.838C122.533 23.6021 122.9 24.72 122.9 26.1916C122.929 27.5499 122.561 28.7668 121.797 29.8422C121.061 30.8893 120 31.7242 118.613 32.3467C117.255 32.9693 115.627 33.2806 113.731 33.2806ZM142.088 33.2806C139.088 33.2806 136.499 32.6439 134.32 31.3704C132.169 30.0686 130.499 28.2716 129.311 25.9793C128.15 23.6587 127.57 20.9986 127.57 17.9988C127.57 14.9424 128.15 12.2681 129.311 9.97583C130.499 7.65526 132.169 5.84407 134.32 4.54229C136.499 3.2122 139.088 2.54716 142.088 2.54716C145.767 2.54716 148.781 3.4669 151.13 5.30638C153.479 7.14586 154.936 9.73528 155.502 13.0746H148.498C148.187 11.5748 147.479 10.4145 146.375 9.59379C145.272 8.74479 143.828 8.3203 142.045 8.3203C140.347 8.3203 138.904 8.71649 137.716 9.50888C136.527 10.3013 135.621 11.4191 134.999 12.8624C134.376 14.2774 134.065 15.9895 134.065 17.9988C134.065 19.9515 134.376 21.6495 134.999 23.0927C135.621 24.5077 136.527 25.5973 137.716 26.3614C138.904 27.1254 140.347 27.5075 142.045 27.5075C143.828 27.5075 145.257 27.1396 146.333 26.4038C147.437 25.668 148.172 24.5926 148.54 23.1776H155.502C154.964 26.3189 153.507 28.7951 151.13 30.6063C148.781 32.3892 145.767 33.2806 142.088 33.2806ZM166.217 33.2806C164.01 33.2806 162.057 32.8278 160.359 31.9222C158.689 31.0167 157.374 29.7573 156.411 28.1442C155.477 26.5029 155.011 24.6209 155.011 22.4984C155.011 20.3194 155.477 18.3808 156.411 16.6829C157.345 14.9849 158.647 13.6548 160.317 12.6926C162.015 11.7021 163.982 11.2069 166.217 11.2069C168.311 11.2069 170.165 11.6597 171.778 12.5653C173.419 13.4708 174.707 14.716 175.641 16.3008C176.575 17.8856 177.042 19.7109 177.042 21.7768C177.042 22.0598 177.042 22.3852 177.042 22.7531C177.042 23.0927 177.014 23.4465 176.957 23.8144H159.51V20.0788H170.589C170.505 18.9468 170.052 18.0271 169.231 17.3196C168.439 16.6121 167.448 16.2584 166.26 16.2584C165.326 16.2584 164.477 16.4706 163.713 16.8951C162.977 17.2913 162.383 17.9139 161.93 18.7629C161.505 19.5836 161.293 20.6448 161.293 21.9466V23.1776C161.293 24.1398 161.491 25.003 161.887 25.7671C162.284 26.5029 162.85 27.083 163.585 27.5075C164.321 27.9037 165.17 28.1018 166.132 28.1018C167.066 28.1018 167.844 27.9037 168.467 27.5075C169.09 27.1113 169.571 26.6019 169.91 25.9793H176.448C176.023 27.3377 175.33 28.5687 174.367 29.6724C173.405 30.7761 172.231 31.6534 170.844 32.3043C169.457 32.9552 167.915 33.2806 166.217 33.2806ZM176.879 32.7712V2.84431H183.247V32.7712H176.879ZM194.454 33.2806C192.247 33.2806 190.294 32.8278 188.596 31.9222C186.927 31.0167 185.611 29.7573 184.649 28.1442C183.715 26.5029 183.248 24.6209 183.248 22.4984C183.248 20.3194 183.715 18.3808 184.649 16.6829C185.582 14.9849 186.884 13.6548 188.554 12.6926C190.252 11.7021 192.219 11.2069 194.454 11.2069C196.549 11.2069 198.402 11.6597 200.015 12.5653C201.657 13.4708 202.944 14.716 203.878 16.3008C204.812 17.8856 205.279 19.7109 205.279 21.7768C205.279 22.0598 205.279 22.3852 205.279 22.7531C205.279 23.0927 205.251 23.4465 205.194 23.8144H187.747V20.0788H198.827C198.742 18.9468 198.289 18.0271 197.468 17.3196C196.676 16.6121 195.685 16.2584 194.497 16.2584C193.563 16.2584 192.714 16.4706 191.95 16.8951C191.214 17.2913 190.62 17.9139 190.167 18.7629C189.743 19.5836 189.53 20.6448 189.53 21.9466V23.1776C189.53 24.1398 189.728 25.003 190.125 25.7671C190.521 26.5029 191.087 27.083 191.823 27.5075C192.558 27.9037 193.407 28.1018 194.37 28.1018C195.303 28.1018 196.082 27.9037 196.704 27.5075C197.327 27.1113 197.808 26.6019 198.148 25.9793H204.685C204.26 27.3377 203.567 28.5687 202.605 29.6724C201.643 30.7761 200.468 31.6534 199.081 32.3043C197.695 32.9552 196.152 33.2806 194.454 33.2806ZM189.276 9.89093V5.26393L199.081 0.50958H199.209V5.43373L189.276 9.89093ZM218.446 33.2806C217.314 33.2806 216.281 33.125 215.347 32.8137C214.413 32.5024 213.592 32.0637 212.885 31.4978C212.177 30.9035 211.569 30.2101 211.059 29.4177H210.932L210.508 32.7712H205.117V2.84431H211.484V14.3057C212.163 13.4284 213.083 12.6926 214.243 12.0983C215.403 11.504 216.776 11.2069 218.361 11.2069C220.37 11.2069 222.125 11.688 223.625 12.6502C225.124 13.584 226.285 14.8858 227.105 16.5555C227.954 18.1969 228.379 20.093 228.379 22.2438C228.379 24.3945 227.954 26.3048 227.105 27.9744C226.285 29.6158 225.124 30.9176 223.625 31.8798C222.153 32.8137 220.427 33.2806 218.446 33.2806ZM216.62 28.0169C217.667 28.0169 218.587 27.7622 219.38 27.2528C220.2 26.7434 220.823 26.0642 221.247 25.2152C221.7 24.3662 221.927 23.3616 221.927 22.2013C221.927 21.0976 221.7 20.1071 221.247 19.2298C220.823 18.3525 220.2 17.6733 219.38 17.1923C218.587 16.6829 217.667 16.4282 216.62 16.4282C215.573 16.4282 214.639 16.6829 213.819 17.1923C213.026 17.6733 212.404 18.3525 211.951 19.2298C211.498 20.0788 211.272 21.0835 211.272 22.2438C211.272 23.3474 211.498 24.3379 211.951 25.2152C212.404 26.0925 213.026 26.7859 213.819 27.2952C214.639 27.7763 215.573 28.0169 216.62 28.0169ZM228.289 32.7712V11.7163H233.723L234.317 16.1735H234.444C235.01 14.8434 235.661 13.8246 236.397 13.1171C237.161 12.3813 238.024 11.8861 238.986 11.6314C239.977 11.3484 241.038 11.2069 242.17 11.2069V17.9563H240.43C239.524 17.9563 238.703 18.0554 237.968 18.2535C237.26 18.4233 236.652 18.7346 236.142 19.1874C235.661 19.6119 235.293 20.192 235.039 20.9278C234.784 21.6636 234.656 22.555 234.656 23.6021V32.7712H228.289ZM251.464 33.2806C249.257 33.2806 247.304 32.8278 245.606 31.9222C243.937 31.0167 242.621 29.7573 241.659 28.1442C240.725 26.5029 240.258 24.6209 240.258 22.4984C240.258 20.3194 240.725 18.3808 241.659 16.6829C242.593 14.9849 243.894 13.6548 245.564 12.6926C247.262 11.7021 249.229 11.2069 251.464 11.2069C253.559 11.2069 255.412 11.6597 257.025 12.5653C258.667 13.4708 259.954 14.716 260.888 16.3008C261.822 17.8856 262.289 19.7109 262.289 21.7768C262.289 22.0598 262.289 22.3852 262.289 22.7531C262.289 23.0927 262.261 23.4465 262.204 23.8144H244.757V20.0788H255.837C255.752 18.9468 255.299 18.0271 254.478 17.3196C253.686 16.6121 252.696 16.2584 251.507 16.2584C250.573 16.2584 249.724 16.4706 248.96 16.8951C248.224 17.2913 247.63 17.9139 247.177 18.7629C246.753 19.5836 246.54 20.6448 246.54 21.9466V23.1776C246.54 24.1398 246.738 25.003 247.135 25.7671C247.531 26.5029 248.097 27.083 248.833 27.5075C249.568 27.9037 250.417 28.1018 251.38 28.1018C252.313 28.1018 253.092 27.9037 253.714 27.5075C254.337 27.1113 254.818 26.6019 255.158 25.9793H261.695C261.27 27.3377 260.577 28.5687 259.615 29.6724C258.653 30.7761 257.478 31.6534 256.091 32.3043C254.705 32.9552 253.162 33.2806 251.464 33.2806ZM270.999 33.2806C269.074 33.2806 267.376 32.9693 265.905 32.3467C264.433 31.6959 263.259 30.8327 262.381 29.7573C261.504 28.6536 260.995 27.4084 260.853 26.0218H267.178C267.32 26.4746 267.546 26.8991 267.857 27.2952C268.169 27.6631 268.579 27.9603 269.088 28.1867C269.598 28.4131 270.192 28.5263 270.871 28.5263C271.55 28.5263 272.102 28.4414 272.527 28.2716C272.98 28.0735 273.305 27.8329 273.503 27.5499C273.73 27.2386 273.843 26.9274 273.843 26.6161C273.843 26.1067 273.673 25.7246 273.333 25.4699C273.022 25.2152 272.555 25.003 271.932 24.8332C271.31 24.6351 270.574 24.4228 269.725 24.1964C268.791 23.9417 267.829 23.6729 266.839 23.3899C265.876 23.1069 264.985 22.7531 264.164 22.3287C263.372 21.8759 262.721 21.2957 262.212 20.5882C261.73 19.8807 261.49 19.0034 261.49 17.9563C261.49 16.7112 261.829 15.5792 262.509 14.5604C263.216 13.5416 264.235 12.7351 265.565 12.1408C266.895 11.5182 268.508 11.2069 270.404 11.2069C273.008 11.2069 275.074 11.8012 276.602 12.9897C278.158 14.15 279.064 15.749 279.319 17.7865H273.418C273.248 17.2206 272.895 16.7819 272.357 16.4706C271.848 16.131 271.183 15.9612 270.362 15.9612C269.485 15.9612 268.805 16.131 268.324 16.4706C267.843 16.7819 267.603 17.1498 267.603 17.5743C267.603 17.9422 267.772 18.2535 268.112 18.5082C268.48 18.7629 268.975 18.9893 269.598 19.1874C270.249 19.3572 270.999 19.5553 271.848 19.7817C273.432 20.1779 274.847 20.5882 276.093 21.0127C277.338 21.4372 278.328 22.0457 279.064 22.838C279.8 23.6021 280.168 24.72 280.168 26.1916C280.196 27.5499 279.828 28.7668 279.064 29.8422C278.328 30.8893 277.267 31.7242 275.88 32.3467C274.522 32.9693 272.895 33.2806 270.999 33.2806Z" fill="white"/>
</svg>
