<svg width="28" height="25" viewBox="0 0 28 25" fill="none" xmlns="http://www.w3.org/2000/svg">
<path d="M26.8077 4.83087L23.0702 8.56837C22.3152 17.3209 14.9339 24.1234 6.10016 24.1234C4.28516 24.1234 2.78891 23.8359 1.65266 23.2684C0.73641 22.8096 0.36141 22.3184 0.26766 22.1784C0.184065 22.053 0.129882 21.9104 0.109159 21.7611C0.0884361 21.6119 0.101709 21.4599 0.147986 21.3165C0.194263 21.1731 0.272347 21.042 0.376404 20.933C0.480462 20.824 0.607802 20.74 0.74891 20.6871C0.78141 20.6746 3.77891 19.5234 5.68266 17.3321C4.62689 16.4641 3.70526 15.4447 2.94766 14.3071C1.39766 12.0059 -0.33734 8.00837 0.19766 2.03462C0.214617 1.8448 0.285462 1.66378 0.40185 1.51288C0.518239 1.36197 0.675324 1.24747 0.854607 1.18285C1.03389 1.11822 1.22791 1.10618 1.41381 1.14813C1.59971 1.19008 1.76975 1.28427 1.90391 1.41962C1.94766 1.46337 6.06391 5.55712 11.0964 6.88462V6.12337C11.0945 5.32511 11.2523 4.53454 11.5606 3.79821C11.8689 3.06187 12.3214 2.39466 12.8914 1.83587C13.445 1.28303 14.1038 0.846671 14.8288 0.552549C15.5538 0.258427 16.3303 0.112496 17.1127 0.123368C18.1621 0.13372 19.191 0.415435 20.0994 0.941125C21.0077 1.46681 21.7646 2.21859 22.2964 3.12337H26.1002C26.2981 3.12321 26.4915 3.18178 26.6561 3.29165C26.8207 3.40152 26.949 3.55775 27.0248 3.74058C27.1005 3.9234 27.1203 4.12459 27.0817 4.31868C27.043 4.51276 26.9477 4.69101 26.8077 4.83087Z" fill="black"/>
</svg>
